<svg width="24" height="68" viewBox="0 0 24 68" fill="none" xmlns="http://www.w3.org/2000/svg">
<g filter="url(#filter0_d_19570_216)">
<rect x="-42" y="1" width="64" height="64" rx="32" fill="white" shape-rendering="crispEdges"/>
<rect x="-41.5" y="1.5" width="63" height="63" rx="31.5" stroke="#DAE0E6" shape-rendering="crispEdges"/>
<path d="M-5.4646 30.0224C-3.68584 31.8066 -2.23101 34.7281 -3.06356 36.464C-5.28985 41.1059 -21.9025 49.248 -23.3133 47.8383C-24.7241 46.43 -16.5634 29.8409 -11.9119 27.6171C-10.1729 26.786 -7.2462 28.2383 -5.45749 30.0139C-5.45749 30.0139 -5.46033 30.0182 -5.4646 30.0224Z" fill="#FF8200"/>
<path d="M3.33685 28.0624C3.04844 26.9945 2.31108 25.9152 1.21001 25.7876C-0.808849 25.5536 -3.98987 29.1162 -3.76255 29.9614C-3.53524 30.8067 0.959965 32.2973 2.63785 31.0932C3.50308 30.472 3.621 29.1304 3.33685 28.0624ZM-2.91011 18.1929C-1.41124 18.5986 0.104687 19.6296 0.283699 21.1698C0.613308 23.9949 -4.39052 28.4482 -5.57825 28.1305C-6.76599 27.8128 -8.85873 21.5215 -7.16663 19.1715C-6.2943 17.9604 -4.41183 17.7958 -2.91011 18.1929Z" fill="#43B02A"/>
</g>
<defs>
<filter id="filter0_d_19570_216" x="-44" y="0" width="68" height="68" filterUnits="userSpaceOnUse" color-interpolation-filters="sRGB">
<feFlood flood-opacity="0" result="BackgroundImageFix"/>
<feColorMatrix in="SourceAlpha" type="matrix" values="0 0 0 0 0 0 0 0 0 0 0 0 0 0 0 0 0 0 127 0" result="hardAlpha"/>
<feOffset dy="1"/>
<feGaussianBlur stdDeviation="1"/>
<feComposite in2="hardAlpha" operator="out"/>
<feColorMatrix type="matrix" values="0 0 0 0 0.0627451 0 0 0 0 0.0941176 0 0 0 0 0.156863 0 0 0 0.04 0"/>
<feBlend mode="normal" in2="BackgroundImageFix" result="effect1_dropShadow_19570_216"/>
<feBlend mode="normal" in="SourceGraphic" in2="effect1_dropShadow_19570_216" result="shape"/>
</filter>
</defs>
</svg>
