<svg width="270" height="97" viewBox="0 0 270 97" fill="none" xmlns="http://www.w3.org/2000/svg">
<path d="M235.613 4.68262H0.965332V33.1032H235.613V4.68262Z" fill="white"/>
<path d="M269.373 4.68262H235.61V33.1032H269.373V4.68262Z" fill="#DC5247"/>
<path d="M261.685 27.1209C258.808 24.3023 257.106 22.5994 256.048 21.66C256.928 20.4267 257.399 18.9588 257.399 17.3733C257.399 13.3216 254.051 9.97461 250 9.97461C245.948 9.97461 242.601 13.3216 242.601 17.3733C242.601 21.425 245.948 24.7721 250 24.7721C251.703 24.7721 253.229 24.1848 254.463 23.2454C255.696 24.4198 258.338 27.0034 260.1 28.7063C260.334 28.9413 260.629 29.0587 260.922 29.0587C261.216 29.0587 261.509 28.9413 261.744 28.7063C262.155 28.2953 262.155 27.532 261.685 27.1209ZM244.892 17.3733C244.892 14.5547 247.182 12.2647 250 12.2647C252.819 12.2647 255.109 14.5547 255.109 17.3733C255.109 20.1919 252.819 22.482 250 22.482C247.182 22.482 244.892 20.1919 244.892 17.3733Z" fill="white"/>
<path d="M71.6051 24.6968H17.993C15.6447 24.6968 13.7065 22.759 13.7065 20.4103V19.6469C13.7065 17.2981 15.6447 15.3604 17.993 15.3604H71.6051C73.9535 15.3604 75.8916 17.2981 75.8916 19.6469V20.4103C75.8916 22.8178 73.9535 24.6968 71.6051 24.6968Z" fill="#90E4FB"/>
<path d="M110.657 24.6968H88.1078C85.7594 24.6968 83.8213 22.759 83.8213 20.4103V19.6469C83.8213 17.2981 85.7594 15.3604 88.1078 15.3604H110.657C113.005 15.3604 114.943 17.2981 114.943 19.6469V20.4103C114.943 22.8178 113.005 24.6968 110.657 24.6968Z" fill="#90E4FB"/>
<path d="M124.691 52.5684L119.75 57.5094L131.334 69.0938L136.277 64.1528L124.691 52.5684Z" fill="#2B353C"/>
<path d="M103.551 0.275391C85.4648 0.275391 70.8429 14.9554 70.8429 32.9826C70.8429 51.0685 85.5234 65.6898 103.551 65.6898C121.636 65.6898 136.258 51.0097 136.258 32.9826C136.317 14.9554 121.636 0.275391 103.551 0.275391ZM103.551 57.4102C90.0457 57.4102 79.1229 46.4882 79.1229 32.9826C79.1229 19.4769 90.0457 8.55497 103.551 8.55497C117.057 8.55497 127.978 19.4769 127.978 32.9826C127.978 46.4882 117.057 57.4102 103.551 57.4102Z" fill="#DC5247"/>
<path d="M162.032 93.9876L161.152 94.8685C158.392 97.6284 153.928 97.6284 151.169 94.8685L128.62 72.3198C125.86 69.5601 125.86 65.0974 128.62 62.3375L129.501 61.4566C132.261 58.6968 136.723 58.6968 139.483 61.4566L162.032 84.0052C164.733 86.765 164.733 91.2278 162.032 93.9876Z" fill="#DC5247"/>
</svg>
