<svg width="211" height="20" viewBox="0 0 211 20" fill="none" xmlns="http://www.w3.org/2000/svg">
<g clip-path="url(#clip0_10_36995)">
<path d="M19.921 6.97317H12.314L9.96381 -0.219727L7.60702 6.97317L0 6.9659L6.1603 11.4165L3.80351 18.6014L9.96381 14.1588L16.1168 18.6014L13.7673 11.4158L19.921 6.97317Z" fill="#F2C94C"/>
<path d="M14.3088 13.379L13.7801 11.752L9.97656 14.4949L14.3088 13.379Z" fill="#F2994A"/>
</g>
<g clip-path="url(#clip1_10_36995)">
<path d="M131.914 17.3527H146.396V2.88965H131.914V17.3527Z" fill="#F2C94C"/>
<path d="M144.26 9.0426L136.046 15.0018L137.244 11.3188L134.107 9.0426H137.985L139.183 5.35938L140.381 9.0426H144.26ZM139.183 12.7258L141.427 12.2546L142.321 15.0018L139.183 12.7258Z" fill="white"/>
<path d="M147.918 17.3527H162.4V2.88965H147.918V17.3527Z" fill="#F2C94C"/>
<path d="M147.918 17.3527H155.159V2.88965H147.918V17.3527Z" fill="#F2C94C"/>
<path d="M155.332 12.6697L157.256 12.2545L158.146 15.0641L155.129 12.8156L151.995 15.0641L153.211 11.3678L150.026 9.08332H153.963L155.179 5.38672L156.395 9.08332H160.332L155.332 12.6697Z" fill="white"/>
<path d="M163.933 17.3527H178.415V2.88965H163.933V17.3527Z" fill="#F2C94C"/>
<path d="M163.933 17.3527H171.174V2.88965H163.933V17.3527Z" fill="#F2C94C"/>
<path d="M176.279 9.0426L168.065 15.0018L169.263 11.3188L166.126 9.0426H170.004L171.202 5.35938L172.401 9.0426L176.279 9.0426ZM171.203 12.7258L173.446 12.2546L174.34 15.0018L171.203 12.7258Z" fill="white"/>
<path d="M179.948 17.3527H194.43V2.88965H179.948V17.3527Z" fill="#F2C94C"/>
<path d="M179.948 17.3527H187.189V2.88965H179.948V17.3527Z" fill="#F2C94C"/>
<path d="M192.293 9.0426L184.079 15.0018L185.278 11.3188L182.14 9.0426H186.018L187.217 5.35938L188.415 9.0426L192.293 9.0426ZM187.217 12.7258L189.46 12.2546L190.354 15.0018L187.217 12.7258Z" fill="white"/>
<path d="M195.952 17.3527H210.434V2.88965H195.952V17.3527Z" fill="#F2C94C"/>
<path d="M195.952 17.3527H203.193V2.88965H195.952V17.3527Z" fill="#F2C94C"/>
<path d="M208.297 9.0426L200.083 15.0018L201.282 11.3188L198.144 9.0426H202.022L203.221 5.35938L204.419 9.0426H208.297ZM203.221 12.7258L205.464 12.2546L206.358 15.0018L203.221 12.7258Z" fill="white"/>
</g>
<path d="M34.8253 8.0696C34.7424 7.80114 34.6281 7.56084 34.4822 7.34872C34.3397 7.13329 34.1674 6.94934 33.9652 6.79688C33.7663 6.64441 33.5376 6.53007 33.2791 6.45383C33.0206 6.37429 32.7389 6.33452 32.4339 6.33452C31.8871 6.33452 31.3999 6.47206 30.9723 6.74716C30.5447 7.02225 30.2083 7.42661 29.9631 7.96023C29.7211 8.49053 29.6001 9.13684 29.6001 9.89915C29.6001 10.6681 29.7211 11.3194 29.9631 11.853C30.205 12.3866 30.5414 12.7926 30.9723 13.071C31.4032 13.3461 31.9036 13.4837 32.4737 13.4837C32.9908 13.4837 33.4382 13.3842 33.8161 13.1854C34.1972 12.9865 34.4905 12.7048 34.696 12.3402C34.9015 11.9723 35.0043 11.5414 35.0043 11.0476L35.4219 11.1122H32.6577V9.67045H36.7891V10.8935C36.7891 11.7652 36.6035 12.5192 36.2322 13.1555C35.861 13.7919 35.3506 14.2824 34.701 14.6271C34.0514 14.9685 33.3056 15.1392 32.4638 15.1392C31.5258 15.1392 30.7022 14.9287 29.9929 14.5078C29.2869 14.0836 28.7351 13.482 28.3374 12.7031C27.9429 11.9209 27.7457 10.9929 27.7457 9.91903C27.7457 9.09706 27.8617 8.36293 28.0938 7.71662C28.3291 7.07031 28.6572 6.52178 29.0781 6.07102C29.4991 5.61695 29.9929 5.27225 30.5597 5.03693C31.1264 4.7983 31.7429 4.67898 32.4091 4.67898C32.9725 4.67898 33.4979 4.76184 33.9851 4.92756C34.4723 5.08996 34.9048 5.32197 35.2827 5.62358C35.6638 5.92519 35.977 6.28314 36.2223 6.69744C36.4676 7.11174 36.6283 7.56913 36.7045 8.0696H34.8253ZM41.824 15.1491C41.0783 15.1491 40.432 14.9851 39.8851 14.657C39.3382 14.3288 38.914 13.8698 38.6124 13.2798C38.3141 12.6899 38.165 12.0005 38.165 11.2116C38.165 10.4228 38.3141 9.73177 38.6124 9.13849C38.914 8.54522 39.3382 8.08452 39.8851 7.75639C40.432 7.42827 41.0783 7.2642 41.824 7.2642C42.5698 7.2642 43.2161 7.42827 43.763 7.75639C44.3098 8.08452 44.7324 8.54522 45.0307 9.13849C45.3323 9.73177 45.4831 10.4228 45.4831 11.2116C45.4831 12.0005 45.3323 12.6899 45.0307 13.2798C44.7324 13.8698 44.3098 14.3288 43.763 14.657C43.2161 14.9851 42.5698 15.1491 41.824 15.1491ZM41.834 13.7074C42.2383 13.7074 42.5764 13.5964 42.8482 13.3743C43.12 13.1489 43.3221 12.8473 43.4547 12.4695C43.5906 12.0916 43.6586 11.6707 43.6586 11.2067C43.6586 10.7393 43.5906 10.3168 43.4547 9.93892C43.3221 9.55777 43.12 9.2545 42.8482 9.02912C42.5764 8.80374 42.2383 8.69105 41.834 8.69105C41.4197 8.69105 41.075 8.80374 40.7999 9.02912C40.5281 9.2545 40.3243 9.55777 40.1884 9.93892C40.0558 10.3168 39.9895 10.7393 39.9895 11.2067C39.9895 11.6707 40.0558 12.0916 40.1884 12.4695C40.3243 12.8473 40.5281 13.1489 40.7999 13.3743C41.075 13.5964 41.4197 13.7074 41.834 13.7074ZM50.3416 15.1491C49.5959 15.1491 48.9496 14.9851 48.4027 14.657C47.8558 14.3288 47.4316 13.8698 47.13 13.2798C46.8317 12.6899 46.6825 12.0005 46.6825 11.2116C46.6825 10.4228 46.8317 9.73177 47.13 9.13849C47.4316 8.54522 47.8558 8.08452 48.4027 7.75639C48.9496 7.42827 49.5959 7.2642 50.3416 7.2642C51.0874 7.2642 51.7337 7.42827 52.2805 7.75639C52.8274 8.08452 53.25 8.54522 53.5483 9.13849C53.8499 9.73177 54.0007 10.4228 54.0007 11.2116C54.0007 12.0005 53.8499 12.6899 53.5483 13.2798C53.25 13.8698 52.8274 14.3288 52.2805 14.657C51.7337 14.9851 51.0874 15.1491 50.3416 15.1491ZM50.3516 13.7074C50.7559 13.7074 51.094 13.5964 51.3658 13.3743C51.6375 13.1489 51.8397 12.8473 51.9723 12.4695C52.1082 12.0916 52.1761 11.6707 52.1761 11.2067C52.1761 10.7393 52.1082 10.3168 51.9723 9.93892C51.8397 9.55777 51.6375 9.2545 51.3658 9.02912C51.094 8.80374 50.7559 8.69105 50.3516 8.69105C49.9373 8.69105 49.5926 8.80374 49.3175 9.02912C49.0457 9.2545 48.8419 9.55777 48.706 9.93892C48.5734 10.3168 48.5071 10.7393 48.5071 11.2067C48.5071 11.6707 48.5734 12.0916 48.706 12.4695C48.8419 12.8473 49.0457 13.1489 49.3175 13.3743C49.5926 13.5964 49.9373 13.7074 50.3516 13.7074ZM58.8493 18.0227C58.2029 18.0227 57.6478 17.9349 57.1838 17.7592C56.7198 17.5869 56.3469 17.3549 56.0652 17.0632C55.7834 16.7715 55.5879 16.4484 55.4785 16.0938L57.0993 15.701C57.1722 15.8501 57.2782 15.9976 57.4174 16.1435C57.5566 16.2926 57.7439 16.4152 57.9792 16.5114C58.2179 16.6108 58.5178 16.6605 58.8791 16.6605C59.3895 16.6605 59.8121 16.5362 60.1468 16.2876C60.4816 16.0424 60.649 15.638 60.649 15.0746V13.6278H60.5595C60.4667 13.8134 60.3308 14.004 60.1518 14.1996C59.9761 14.3951 59.7425 14.5592 59.4508 14.6918C59.1625 14.8243 58.7995 14.8906 58.362 14.8906C57.7754 14.8906 57.2434 14.7531 56.7662 14.478C56.2922 14.1996 55.9144 13.7853 55.6326 13.2351C55.3542 12.6816 55.215 11.9889 55.215 11.157C55.215 10.3184 55.3542 9.6108 55.6326 9.03409C55.9144 8.45407 56.2939 8.01491 56.7711 7.71662C57.2484 7.41501 57.7804 7.2642 58.367 7.2642C58.8145 7.2642 59.1824 7.34044 59.4707 7.4929C59.7624 7.64205 59.9944 7.82268 60.1667 8.0348C60.3391 8.24361 60.47 8.44081 60.5595 8.62642H60.6589V7.36364H62.4338V15.1243C62.4338 15.7772 62.278 16.3175 61.9664 16.745C61.6549 17.1726 61.229 17.4924 60.6887 17.7045C60.1485 17.9167 59.5353 18.0227 58.8493 18.0227ZM58.8642 13.4787C59.2453 13.4787 59.5701 13.3859 59.8386 13.2003C60.1071 13.0147 60.3109 12.7479 60.4501 12.3999C60.5893 12.0518 60.6589 11.6342 60.6589 11.147C60.6589 10.6664 60.5893 10.2455 60.4501 9.88423C60.3142 9.52296 60.112 9.2429 59.8436 9.04403C59.5784 8.84186 59.252 8.74077 58.8642 8.74077C58.4631 8.74077 58.1284 8.84517 57.8599 9.05398C57.5914 9.26278 57.3893 9.54948 57.2534 9.91406C57.1175 10.2753 57.0495 10.6863 57.0495 11.147C57.0495 11.6143 57.1175 12.0237 57.2534 12.375C57.3926 12.723 57.5964 12.9948 57.8649 13.1903C58.1367 13.3826 58.4698 13.4787 58.8642 13.4787ZM66.0779 4.81818V15H64.2782V4.81818H66.0779ZM71.3093 15.1491C70.5437 15.1491 69.8825 14.9901 69.3256 14.6719C68.7721 14.3504 68.3462 13.8963 68.0479 13.3097C67.7496 12.7197 67.6005 12.0253 67.6005 11.2266C67.6005 10.4411 67.7496 9.75166 68.0479 9.15838C68.3496 8.56179 68.7705 8.09777 69.3107 7.76633C69.851 7.43158 70.4857 7.2642 71.2148 7.2642C71.6855 7.2642 72.1296 7.34044 72.5472 7.4929C72.9682 7.64205 73.3394 7.87405 73.6609 8.18892C73.9857 8.50379 74.2409 8.90483 74.4265 9.39205C74.6121 9.87595 74.7049 10.4527 74.7049 11.1222V11.674H68.4457V10.4609H72.9798C72.9764 10.1162 72.9019 9.80966 72.756 9.54119C72.6102 9.26941 72.4064 9.05563 72.1445 8.89986C71.886 8.74408 71.5844 8.66619 71.2397 8.66619C70.8718 8.66619 70.5487 8.75568 70.2702 8.93466C69.9918 9.11032 69.7747 9.34233 69.619 9.63068C69.4665 9.91572 69.3886 10.2289 69.3853 10.5703V11.6293C69.3853 12.0734 69.4665 12.4545 69.6289 12.7727C69.7913 13.0876 70.0183 13.3295 70.31 13.4986C70.6017 13.6643 70.9431 13.7472 71.3342 13.7472C71.596 13.7472 71.833 13.7107 72.0451 13.6378C72.2572 13.5616 72.4412 13.4505 72.5969 13.3047C72.7527 13.1589 72.8704 12.9782 72.9499 12.7628L74.6303 12.9517C74.5243 13.3958 74.3221 13.7836 74.0238 14.1151C73.7288 14.4432 73.351 14.6984 72.8903 14.8807C72.4296 15.0597 71.9026 15.1491 71.3093 15.1491ZM79.7797 15V4.81818H83.5978C84.38 4.81818 85.0363 4.95407 85.5666 5.22585C86.1002 5.49763 86.5029 5.87879 86.7747 6.36932C87.0498 6.85653 87.1873 7.42495 87.1873 8.07457C87.1873 8.72751 87.0481 9.29427 86.7697 9.77486C86.4946 10.2521 86.0886 10.6217 85.5517 10.8835C85.0147 11.142 84.3552 11.2713 83.573 11.2713H80.8535V9.74006H83.3244C83.7818 9.74006 84.1563 9.67708 84.448 9.55114C84.7396 9.42187 84.9551 9.23461 85.0943 8.98935C85.2368 8.74077 85.3081 8.43584 85.3081 8.07457C85.3081 7.7133 85.2368 7.40507 85.0943 7.14986C84.9518 6.89134 84.7347 6.69579 84.443 6.56321C84.1513 6.42732 83.7752 6.35938 83.3145 6.35938H81.6241V15H79.7797ZM85.0396 10.3864L87.5602 15H85.502L83.0261 10.3864H85.0396ZM91.003 15.1541C90.5191 15.1541 90.0833 15.0679 89.6955 14.8956C89.311 14.7199 89.0061 14.4614 88.7807 14.12C88.5587 13.7786 88.4476 13.3577 88.4476 12.8572C88.4476 12.4264 88.5272 12.0701 88.6863 11.7884C88.8453 11.5066 89.0624 11.2812 89.3375 11.1122C89.6126 10.9432 89.9225 10.8156 90.2672 10.7294C90.6152 10.6399 90.9748 10.5753 91.3461 10.5355C91.7935 10.4891 92.1564 10.4477 92.4348 10.4112C92.7132 10.3714 92.9154 10.3118 93.0414 10.2322C93.1706 10.1494 93.2353 10.0218 93.2353 9.84943V9.8196C93.2353 9.44508 93.1242 9.15507 92.9022 8.94957C92.6801 8.74408 92.3603 8.64134 91.9426 8.64134C91.5018 8.64134 91.1522 8.73745 90.8936 8.92969C90.6384 9.12192 90.4661 9.34896 90.3766 9.6108L88.6962 9.37216C88.8288 8.90814 89.0475 8.52036 89.3525 8.20881C89.6574 7.89394 90.0302 7.65862 90.4711 7.50284C90.9119 7.34375 91.3991 7.2642 91.9327 7.2642C92.3006 7.2642 92.6668 7.30729 93.0314 7.39347C93.396 7.47964 93.7291 7.62216 94.0307 7.82102C94.3323 8.01657 94.5743 8.28338 94.7566 8.62145C94.9422 8.95952 95.035 9.3821 95.035 9.8892V15H93.3049V13.951H93.2452C93.1358 14.1631 92.9817 14.362 92.7828 14.5476C92.5873 14.7299 92.3404 14.8774 92.0421 14.9901C91.7471 15.0994 91.4007 15.1541 91.003 15.1541ZM91.4703 13.8317C91.8316 13.8317 92.1448 13.7604 92.41 13.6179C92.6751 13.4721 92.879 13.2798 93.0215 13.0412C93.1673 12.8026 93.2402 12.5424 93.2402 12.2607V11.3608C93.1839 11.4072 93.0878 11.4503 92.9519 11.4901C92.8193 11.5298 92.6702 11.5646 92.5044 11.5945C92.3387 11.6243 92.1747 11.6508 92.0123 11.674C91.8498 11.6972 91.709 11.7171 91.5897 11.7337C91.3212 11.7701 91.0809 11.8298 90.8688 11.9126C90.6567 11.9955 90.4893 12.1115 90.3667 12.2607C90.244 12.4065 90.1827 12.5954 90.1827 12.8274C90.1827 13.1589 90.3037 13.4091 90.5456 13.5781C90.7876 13.7472 91.0958 13.8317 91.4703 13.8317ZM100.658 7.36364V8.75568H96.2679V7.36364H100.658ZM97.3517 5.53409H99.1515V12.7031C99.1515 12.9451 99.1879 13.1307 99.2608 13.2599C99.3371 13.3859 99.4365 13.4721 99.5591 13.5185C99.6818 13.5649 99.8176 13.5881 99.9668 13.5881C100.079 13.5881 100.182 13.5798 100.275 13.5632C100.371 13.5466 100.444 13.5317 100.494 13.5185L100.797 14.9254C100.701 14.9586 100.563 14.995 100.384 15.0348C100.209 15.0746 99.9933 15.0978 99.7381 15.1044C99.2873 15.1177 98.8813 15.0497 98.5201 14.9006C98.1588 14.7481 97.8721 14.5128 97.66 14.1946C97.4512 13.8764 97.3484 13.4787 97.3517 13.0014V5.53409ZM102.163 15V7.36364H103.963V15H102.163ZM103.068 6.27983C102.783 6.27983 102.538 6.18537 102.332 5.99645C102.127 5.80421 102.024 5.57386 102.024 5.3054C102.024 5.03362 102.127 4.80327 102.332 4.61435C102.538 4.42211 102.783 4.32599 103.068 4.32599C103.356 4.32599 103.601 4.42211 103.804 4.61435C104.009 4.80327 104.112 5.03362 104.112 5.3054C104.112 5.57386 104.009 5.80421 103.804 5.99645C103.601 6.18537 103.356 6.27983 103.068 6.27983ZM107.613 10.5256V15H105.813V7.36364H107.534V8.66122H107.623C107.799 8.23366 108.079 7.89394 108.463 7.64205C108.851 7.39015 109.33 7.2642 109.9 7.2642C110.427 7.2642 110.886 7.37689 111.277 7.60227C111.672 7.82765 111.977 8.15412 112.192 8.58168C112.411 9.00923 112.518 9.52794 112.515 10.1378V15H110.715V10.4162C110.715 9.90578 110.583 9.50639 110.318 9.21804C110.056 8.92969 109.693 8.78551 109.229 8.78551C108.914 8.78551 108.634 8.85511 108.389 8.99432C108.147 9.13021 107.956 9.32741 107.817 9.58594C107.681 9.84446 107.613 10.1577 107.613 10.5256ZM117.666 18.0227C117.019 18.0227 116.464 17.9349 116 17.7592C115.536 17.5869 115.163 17.3549 114.882 17.0632C114.6 16.7715 114.404 16.4484 114.295 16.0938L115.916 15.701C115.989 15.8501 116.095 15.9976 116.234 16.1435C116.373 16.2926 116.56 16.4152 116.796 16.5114C117.034 16.6108 117.334 16.6605 117.695 16.6605C118.206 16.6605 118.628 16.5362 118.963 16.2876C119.298 16.0424 119.465 15.638 119.465 15.0746V13.6278H119.376C119.283 13.8134 119.147 14.004 118.968 14.1996C118.793 14.3951 118.559 14.5592 118.267 14.6918C117.979 14.8243 117.616 14.8906 117.178 14.8906C116.592 14.8906 116.06 14.7531 115.583 14.478C115.109 14.1996 114.731 13.7853 114.449 13.2351C114.171 12.6816 114.031 11.9889 114.031 11.157C114.031 10.3184 114.171 9.6108 114.449 9.03409C114.731 8.45407 115.11 8.01491 115.588 7.71662C116.065 7.41501 116.597 7.2642 117.183 7.2642C117.631 7.2642 117.999 7.34044 118.287 7.4929C118.579 7.64205 118.811 7.82268 118.983 8.0348C119.155 8.24361 119.286 8.44081 119.376 8.62642H119.475V7.36364H121.25V15.1243C121.25 15.7772 121.094 16.3175 120.783 16.745C120.471 17.1726 120.045 17.4924 119.505 17.7045C118.965 17.9167 118.352 18.0227 117.666 18.0227ZM117.681 13.4787C118.062 13.4787 118.387 13.3859 118.655 13.2003C118.923 13.0147 119.127 12.7479 119.267 12.3999C119.406 12.0518 119.475 11.6342 119.475 11.147C119.475 10.6664 119.406 10.2455 119.267 9.88423C119.131 9.52296 118.928 9.2429 118.66 9.04403C118.395 8.84186 118.068 8.74077 117.681 8.74077C117.28 8.74077 116.945 8.84517 116.676 9.05398C116.408 9.26278 116.206 9.54948 116.07 9.91406C115.934 10.2753 115.866 10.6863 115.866 11.147C115.866 11.6143 115.934 12.0237 116.07 12.375C116.209 12.723 116.413 12.9948 116.681 13.1903C116.953 13.3826 117.286 13.4787 117.681 13.4787Z" fill="#181617"/>
<defs>
<clipPath id="clip0_10_36995">
<rect width="20" height="20" fill="white"/>
</clipPath>
<clipPath id="clip1_10_36995">
<rect width="78.41" height="14.36" fill="white" transform="translate(131.9 2.88965)"/>
</clipPath>
</defs>
</svg>
