<svg width="139" height="29" viewBox="0 0 139 29" fill="none" xmlns="http://www.w3.org/2000/svg">
<path d="M12.1078 5.8541C12.7065 4.01148 15.3133 4.01148 15.912 5.8541L16.7063 8.29862C16.974 9.12267 17.7419 9.68059 18.6084 9.68059H21.1787C23.1161 9.68059 23.9217 12.1598 22.3543 13.2986L20.2748 14.8094C19.5739 15.3187 19.2805 16.2214 19.5483 17.0455L20.3426 19.49C20.9413 21.3326 18.8323 22.8649 17.2649 21.7261L15.1855 20.2153C14.4845 19.706 13.5353 19.706 12.8343 20.2153L10.7549 21.7261C9.18745 22.8649 7.07849 21.3326 7.67719 19.49L8.47147 17.0455C8.73921 16.2214 8.4459 15.3187 7.74492 14.8094L5.66549 13.2986C4.09806 12.1598 4.90361 9.68059 6.84106 9.68059H9.41138C10.2778 9.68059 11.0457 9.12267 11.3135 8.29862L12.1078 5.8541Z" fill="#FFC226"/>
<path d="M39.8452 5.98229C40.4368 4.12501 43.0648 4.12501 43.6565 5.98229L44.3908 8.28763C44.6551 9.11726 45.4258 9.68059 46.2965 9.68059H48.7559C50.6837 9.68059 51.4955 12.1396 49.9467 13.2874L47.8893 14.8121C47.2021 15.3213 46.9148 16.2111 47.1744 17.026L47.9441 19.4423C48.5333 21.2919 46.4073 22.812 44.8477 21.6562L42.9416 20.2437C42.2343 19.7195 41.2673 19.7195 40.56 20.2437L38.6539 21.6562C37.0943 22.812 34.9683 21.2919 35.5575 19.4423L36.3272 17.026C36.5868 16.2111 36.2995 15.3213 35.6123 14.8121L33.5549 13.2874C32.0061 12.1396 32.8179 9.68059 34.7457 9.68059H37.2051C38.0758 9.68059 38.8465 9.11727 39.1108 8.28763L39.8452 5.98229Z" fill="#FFC226"/>
<path d="M67.6 5.8541C68.1987 4.01148 70.8055 4.01148 71.4042 5.8541L72.1985 8.29862C72.4662 9.12267 73.2341 9.68059 74.1006 9.68059H76.6709C78.6083 9.68059 79.4139 12.1598 77.8465 13.2986L75.767 14.8094C75.0661 15.3187 74.7727 16.2214 75.0405 17.0455L75.8348 19.49C76.4335 21.3326 74.3245 22.8649 72.7571 21.7261L70.6776 20.2153C69.9767 19.706 69.0275 19.706 68.3265 20.2153L66.2471 21.7261C64.6796 22.8649 62.5707 21.3326 63.1694 19.49L63.9637 17.0455C64.2314 16.2214 63.9381 15.3187 63.2371 14.8094L61.1577 13.2986C59.5903 12.1598 60.3958 9.68059 62.3332 9.68059H64.9036C65.77 9.68059 66.5379 9.12267 66.8057 8.29862L67.6 5.8541Z" fill="#FFC226"/>
<path d="M95.3373 5.98229C95.929 4.12501 98.557 4.12501 99.1486 5.98229L99.883 8.28763C100.147 9.11726 100.918 9.68059 101.789 9.68059H104.248C106.176 9.68059 106.988 12.1396 105.439 13.2874L103.381 14.8121C102.694 15.3213 102.407 16.2111 102.667 17.026L103.436 19.4423C104.025 21.2919 101.899 22.812 100.34 21.6562L98.4338 20.2437C97.7265 19.7195 96.7595 19.7195 96.0522 20.2437L94.1461 21.6562C92.5865 22.812 90.4605 21.2919 91.0497 19.4423L91.8194 17.026C92.079 16.2111 91.7917 15.3213 91.1045 14.8121L89.0471 13.2874C87.4982 12.1396 88.3101 9.68059 90.2379 9.68059H92.6973C93.568 9.68059 94.3387 9.11727 94.603 8.28763L95.3373 5.98229Z" fill="#FFC226"/>
<path d="M123.568 6.00861C124.017 4.62664 125.972 4.62664 126.421 6.00861L127.215 8.45313C127.55 9.48319 128.51 10.1806 129.593 10.1806H132.163C133.616 10.1806 134.22 12.04 133.045 12.8941L130.965 14.4049C130.089 15.0415 129.722 16.1699 130.057 17.2L130.851 19.6445C131.3 21.0265 129.719 22.1757 128.543 21.3216L126.464 19.8108C125.588 19.1742 124.401 19.1742 123.525 19.8108L121.445 21.3216C120.27 22.1757 118.688 21.0265 119.137 19.6445L119.931 17.2C120.266 16.1699 119.899 15.0415 119.023 14.4049L116.944 12.8941C115.768 12.04 116.372 10.1806 117.825 10.1806H120.396C121.479 10.1806 122.439 9.48319 122.773 8.45313L123.568 6.00861Z" stroke="#FFC226"/>
<mask id="mask0_1_22188" style="mask-type:alpha" maskUnits="userSpaceOnUse" x="115" y="4" width="20" height="19">
<path d="M123.092 5.8541C123.691 4.01148 126.298 4.01148 126.896 5.8541L127.691 8.29862C127.958 9.12267 128.726 9.68059 129.593 9.68059H132.163C134.101 9.68059 134.906 12.1598 133.339 13.2986L131.259 14.8094C130.558 15.3187 130.265 16.2214 130.533 17.0455L131.327 19.49C131.926 21.3326 129.817 22.8649 128.249 21.7261L126.17 20.2153C125.469 19.706 124.52 19.706 123.819 20.2153L121.739 21.7261C120.172 22.8649 118.063 21.3326 118.662 19.49L119.456 17.0455C119.724 16.2214 119.43 15.3187 118.729 14.8094L116.65 13.2986C115.082 12.1598 115.888 9.68059 117.825 9.68059H120.396C121.262 9.68059 122.03 9.12267 122.298 8.29862L123.092 5.8541Z" fill="#FFC226"/>
</mask>
<g mask="url(#mask0_1_22188)">
<rect x="113" y="1" width="12" height="25" fill="#FFC226"/>
</g>
</svg>
